{
  "asset": {
    "version": "2.0",
    "generator": "THREE.GLTFExporter"
  },
  "scenes": [
    {
      "nodes": [
        0
      ]
    }
  ],
  "scene": 0,
  "nodes": [
    {
      "children": [
        10
      ],
      "matrix": [
        0.01,
        0,
        0,
        0,
        0,
        0.01,
        0,
        0,
        0,
        0,
        0.01,
        0,
        0,
        0,
        0,
        1
      ]
    },
    {
      "matrix": [
        5.695065425441519,
        0,
        0,
        0,
        0,
        5.695065425441519,
        0,
        0,
        0,
        0,
        5.695065425441519,
        0,
        1.4210854715202004e-14,
        -43.53026505276448,
        -22.38477187699394,
        0.9999999999999999
      ],
      "name": "piano",
      "mesh": 0
    },
    {
      "matrix": [
        5.695065425441519,
        0,
        0,
        0,
        0,
        5.695065425441519,
        0,
        0,
        0,
        0,
        5.695065425441519,
        0,
        -1.3996270809002453e-10,
        -47.08454667682586,
        -22.38477187699395,
        0.9999999999999999
      ],
      "name": "piano_blackkeys",
      "mesh": 1
    },
    {
      "matrix": [
        5.695065425441519,
        0,
        0,
        0,
        0,
        5.695065425441519,
        0,
        0,
        0,
        0,
        5.695065425441519,
        0,
        -1.3996270809002453e-10,
        -47.08454667682586,
        -22.38477187699395,
        0.9999999999999999
      ],
      "name": "piano_whitekeys",
      "mesh": 2
    },
    {
      "matrix": [
        5.695065425441519,
        0,
        0,
        0,
        0,
        -3.047214410975804,
        -4.81126329913473,
        0,
        0,
        4.81126329913473,
        -3.047214410975804,
        0,
        -1.3993428638059416e-10,
        9.808076640145526,
        73.19782729492002,
        1.0000000000000002
      ],
      "name": "piano_lid",
      "mesh": 3
    },
    {
      "matrix": [
        5.695065425441519,
        0,
        0,
        0,
        0,
        5.695065425441519,
        0,
        0,
        0,
        0,
        5.695065425441519,
        0,
        -1.3996270809002453e-10,
        -47.08454667682586,
        -22.38477187699395,
        0.9999999999999999
      ],
      "name": "pedal1",
      "mesh": 4
    },
    {
      "matrix": [
        5.695065425441519,
        0,
        0,
        0,
        0,
        5.695065425441519,
        0,
        0,
        0,
        0,
        5.695065425441519,
        0,
        -1.3996270809002453e-10,
        -47.08454667682586,
        -22.38477187699395,
        0.9999999999999999
      ],
      "name": "pedal2",
      "mesh": 5
    },
    {
      "name": "Group",
      "children": [
        1,
        2,
        3,
        4,
        5,
        6
      ]
    },
    {
      "matrix": [
        0.8932674994400517,
        -2.6804897371168757e-8,
        0.4495254992145791,
        0,
        0.19647819020805624,
        0.8994231053718423,
        -0.39042848038512595,
        0,
        -0.4043136099820091,
        0.4370790289218542,
        0.8034254335406894,
        0,
        -447.59598911165136,
        491.0340002022479,
        879.0480475718865,
        1
      ],
      "camera": 0
    },
    {
      "matrix": [
        1,
        0,
        0,
        0,
        0,
        1,
        0,
        0,
        0,
        0,
        1,
        0,
        0,
        1,
        0,
        1
      ],
      "name": "Default Ambient Light"
    },
    {
      "name": "Scene 1",
      "children": [
        7,
        8,
        9
      ]
    }
  ],
  "bufferViews": [
    {
      "buffer": 0,
      "byteOffset": 0,
      "byteLength": 15336,
      "target": 34962,
      "byteStride": 12
    },
    {
      "buffer": 0,
      "byteOffset": 15336,
      "byteLength": 15336,
      "target": 34962,
      "byteStride": 12
    },
    {
      "buffer": 0,
      "byteOffset": 30672,
      "byteLength": 10224,
      "target": 34962,
      "byteStride": 8
    },
    {
      "buffer": 0,
      "byteOffset": 40896,
      "byteLength": 10368,
      "target": 34962,
      "byteStride": 12
    },
    {
      "buffer": 0,
      "byteOffset": 51264,
      "byteLength": 10368,
      "target": 34962,
      "byteStride": 12
    },
    {
      "buffer": 0,
      "byteOffset": 61632,
      "byteLength": 6912,
      "target": 34962,
      "byteStride": 8
    },
    {
      "buffer": 0,
      "byteOffset": 68544,
      "byteLength": 7488,
      "target": 34962,
      "byteStride": 12
    },
    {
      "buffer": 0,
      "byteOffset": 76032,
      "byteLength": 7488,
      "target": 34962,
      "byteStride": 12
    },
    {
      "buffer": 0,
      "byteOffset": 83520,
      "byteLength": 4992,
      "target": 34962,
      "byteStride": 8
    },
    {
      "buffer": 0,
      "byteOffset": 88512,
      "byteLength": 1296,
      "target": 34962,
      "byteStride": 12
    },
    {
      "buffer": 0,
      "byteOffset": 89808,
      "byteLength": 1296,
      "target": 34962,
      "byteStride": 12
    },
    {
      "buffer": 0,
      "byteOffset": 91104,
      "byteLength": 864,
      "target": 34962,
      "byteStride": 8
    },
    {
      "buffer": 0,
      "byteOffset": 91968,
      "byteLength": 5184,
      "target": 34962,
      "byteStride": 12
    },
    {
      "buffer": 0,
      "byteOffset": 97152,
      "byteLength": 5184,
      "target": 34962,
      "byteStride": 12
    },
    {
      "buffer": 0,
      "byteOffset": 102336,
      "byteLength": 3456,
      "target": 34962,
      "byteStride": 8
    },
    {
      "buffer": 0,
      "byteOffset": 105792,
      "byteLength": 5184,
      "target": 34962,
      "byteStride": 12
    },
    {
      "buffer": 0,
      "byteOffset": 110976,
      "byteLength": 5184,
      "target": 34962,
      "byteStride": 12
    },
    {
      "buffer": 0,
      "byteOffset": 116160,
      "byteLength": 3456,
      "target": 34962,
      "byteStride": 8
    }
  ],
  "buffers": [
    {
      "byteLength": 119616,
      "uri": "data:application/octet-stream;base64,"
    }
  ],
  "accessors": [
    {
      "bufferView": 0,
      "componentType": 5126,
      "count": 1278,
      "max": [
        10.08958625793457,
        15.418901443481445,
        8.43765926361084
      ],
      "min": [
        -10.08958625793457,
        -5.513019800673646e-7,
        -0.5765478610992432
      ],
      "type": "VEC3"
    },
    {
      "bufferView": 1,
      "componentType": 5126,
      "count": 1278,
      "max": [
        1,
        1,
        1
      ],
      "min": [
        -1,
        -1,
        -1
      ],
      "type": "VEC3"
    },
    {
      "bufferView": 2,
      "componentType": 5126,
      "count": 1278,
      "max": [
        0.875,
        1
      ],
      "min": [
        0.125,
        0
      ],
      "type": "VEC2"
    },
    {
      "bufferView": 3,
      "componentType": 5126,
      "count": 864,
      "max": [
        8.39819049835205,
        8.847329139709473,
        7.045032501220703
      ],
      "min": [
        -8.743473052978516,
        8.628500938415527,
        5.631086826324463
      ],
      "type": "VEC3"
    },
    {
      "bufferView": 4,
      "componentType": 5126,
      "count": 864,
      "max": [
        1,
        1,
        0.879774272441864
      ],
      "min": [
        -1,
        -0.0000032167274639505195,
        0
      ],
      "type": "VEC3"
    },
    {
      "bufferView": 5,
      "componentType": 5126,
      "count": 864,
      "max": [
        0.8672715425491333,
        0.6690213680267334
      ],
      "min": [
        0.13272854685783386,
        0.26232054829597473
      ],
      "type": "VEC2"
    },
    {
      "bufferView": 6,
      "componentType": 5126,
      "count": 624,
      "max": [
        8.97508716583252,
        8.618791580200195,
        7.7450947761535645
      ],
      "min": [
        -8.97508716583252,
        8.276744842529297,
        5.631086349487305
      ],
      "type": "VEC3"
    },
    {
      "bufferView": 7,
      "componentType": 5126,
      "count": 624,
      "max": [
        0,
        1,
        1
      ],
      "min": [
        0,
        0,
        0
      ],
      "type": "VEC3"
    },
    {
      "bufferView": 8,
      "componentType": 5126,
      "count": 624,
      "max": [
        0.875,
        0.5
      ],
      "min": [
        0.375,
        0
      ],
      "type": "VEC2"
    },
    {
      "bufferView": 9,
      "componentType": 5126,
      "count": 108,
      "max": [
        8.952901840209961,
        9.801878929138184,
        8.075617790222168
      ],
      "min": [
        -8.952902793884277,
        8.439935684204102,
        5.5484619140625
      ],
      "type": "VEC3"
    },
    {
      "bufferView": 10,
      "componentType": 5126,
      "count": 108,
      "max": [
        1,
        0.9979448318481445,
        0.9998560547828674
      ],
      "min": [
        -1,
        -1,
        -1
      ],
      "type": "VEC3"
    },
    {
      "bufferView": 11,
      "componentType": 5126,
      "count": 108,
      "max": [
        0.875,
        1
      ],
      "min": [
        0.125,
        0
      ],
      "type": "VEC2"
    },
    {
      "bufferView": 12,
      "componentType": 5126,
      "count": 432,
      "max": [
        -0.15861964225769043,
        1.076089859008789,
        7.6802659034729
      ],
      "min": [
        -0.9532967805862427,
        0.49220824241638184,
        5.6448211669921875
      ],
      "type": "VEC3"
    },
    {
      "bufferView": 13,
      "componentType": 5126,
      "count": 432,
      "max": [
        0.9982749819755554,
        0.9996410608291626,
        1
      ],
      "min": [
        -0.9982749819755554,
        -0.9996985793113708,
        -1
      ],
      "type": "VEC3"
    },
    {
      "bufferView": 14,
      "componentType": 5126,
      "count": 432,
      "max": [
        0.875,
        1
      ],
      "min": [
        0.125,
        0
      ],
      "type": "VEC2"
    },
    {
      "bufferView": 15,
      "componentType": 5126,
      "count": 432,
      "max": [
        0.9533385634422302,
        1.076089859008789,
        7.6802659034729
      ],
      "min": [
        0.15866148471832275,
        0.49220824241638184,
        5.644820690155029
      ],
      "type": "VEC3"
    },
    {
      "bufferView": 16,
      "componentType": 5126,
      "count": 432,
      "max": [
        0.9982749819755554,
        0.9996410608291626,
        1
      ],
      "min": [
        -0.9982749819755554,
        -0.9996985793113708,
        -1
      ],
      "type": "VEC3"
    },
    {
      "bufferView": 17,
      "componentType": 5126,
      "count": 432,
      "max": [
        0.875,
        1
      ],
      "min": [
        0.125,
        0
      ],
      "type": "VEC2"
    }
  ],
  "meshes": [
    {
      "primitives": [
        {
          "mode": 4,
          "attributes": {
            "POSITION": 0,
            "NORMAL": 1,
            "TEXCOORD_0": 2
          },
          "extras": {
            "parameters": {
              "width": 20.179172515819957,
              "height": 15.418902373014706,
              "depth": 9.014207124710083,
              "subdivisions": 0
            },
            "type": "NonParametricGeometry"
          }
        }
      ]
    },
    {
      "primitives": [
        {
          "mode": 4,
          "attributes": {
            "POSITION": 3,
            "NORMAL": 4,
            "TEXCOORD_0": 5
          },
          "extras": {
            "parameters": {
              "width": 17.141663551330566,
              "height": 0.2188282012939453,
              "depth": 1.4139456748962402,
              "subdivisions": 0
            },
            "type": "NonParametricGeometry"
          }
        }
      ]
    },
    {
      "primitives": [
        {
          "mode": 4,
          "attributes": {
            "POSITION": 6,
            "NORMAL": 7,
            "TEXCOORD_0": 8
          },
          "extras": {
            "parameters": {
              "width": 17.95017433166504,
              "height": 0.34204673767089844,
              "depth": 2.1140084266662598,
              "subdivisions": 0
            },
            "type": "NonParametricGeometry"
          }
        }
      ]
    },
    {
      "primitives": [
        {
          "mode": 4,
          "attributes": {
            "POSITION": 9,
            "NORMAL": 10,
            "TEXCOORD_0": 11
          },
          "extras": {
            "parameters": {
              "width": 17.90580463409424,
              "height": 1.361943244934082,
              "depth": 2.527155876159668,
              "subdivisions": 0
            },
            "type": "NonParametricGeometry"
          }
        }
      ]
    },
    {
      "primitives": [
        {
          "mode": 4,
          "attributes": {
            "POSITION": 12,
            "NORMAL": 13,
            "TEXCOORD_0": 14
          },
          "extras": {
            "parameters": {
              "width": 0.7946771383285522,
              "height": 0.5838816165924072,
              "depth": 2.035444736480713,
              "subdivisions": 0
            },
            "type": "NonParametricGeometry"
          }
        }
      ]
    },
    {
      "primitives": [
        {
          "mode": 4,
          "attributes": {
            "POSITION": 15,
            "NORMAL": 16,
            "TEXCOORD_0": 17
          },
          "extras": {
            "parameters": {
              "width": 0.7946770787239075,
              "height": 0.5838816165924072,
              "depth": 2.035445213317871,
              "subdivisions": 0
            },
            "type": "NonParametricGeometry"
          }
        }
      ]
    }
  ],
  "cameras": [
    {
      "type": "orthographic",
      "orthographic": {
        "xmag": 1.8544789204669798,
        "ymag": 1.1590493252918623,
        "zfar": 100000,
        "znear": 0
      }
    }
  ]
}